<svg focusable="false" aria-hidden="true" viewBox="0 0 369 81" width="369" height="81" fill="none" xmlns="http://www.w3.org/2000/svg"><path d="M94.2613 23.8003H83.3953C82.0709 23.8003 80.9997 22.7291 80.9997 21.4046V17.7359C80.9997 16.4114 82.0709 15.3402 83.3953 15.3402H116.021C117.345 15.3402 118.416 16.4114 118.416 17.7359V21.4046C118.416 22.7291 117.345 23.8003 116.021 23.8003H105.155V57.5584C105.155 58.8829 104.083 59.9541 102.759 59.9541H96.657C95.3325 59.9541 94.2613 58.8829 94.2613 57.5584V23.8003Z" fill="currentColor"/><path d="M122.762 70.3854L123.608 67.0315C123.864 66.0185 124.775 65.3101 125.822 65.3135H126.619C130.203 65.3135 132.088 63.4894 133.036 60.8576L133.584 59.0882L120.86 29.3342C120.182 27.7531 121.342 25.9974 123.064 25.9974H128.666C129.676 25.9974 130.579 26.634 130.921 27.5854L135.596 40.6109C136.657 43.6876 137.527 46.908 138.492 50.2346H138.786C139.604 47.021 140.422 43.8005 141.336 40.6109L145.271 27.6949C145.579 26.6853 146.51 25.9974 147.564 25.9974H152.753C154.423 25.9974 155.579 27.6607 154.998 29.2247L143.464 60.3237C139.984 68.8283 136.072 73.2328 127.451 73.2328C126.301 73.2328 125.36 73.1644 124.522 73.0412C123.269 72.8598 122.458 71.6141 122.769 70.3854H122.762Z" fill="currentColor"/><path d="M164.218 25.9939H169.345C170.669 25.9939 171.741 27.065 171.741 28.3895V29.3341C174.619 26.959 178.359 25.1725 182.186 25.1725C191.067 25.1725 196.501 31.9693 196.501 42.4383C196.501 54.0914 189.013 60.7753 181.073 60.7753C177.914 60.7753 174.951 59.4953 172.326 57.2331V70.1594C172.326 71.4838 171.255 72.555 169.93 72.555H164.218C162.894 72.555 161.823 71.4838 161.823 70.1594V28.3895C161.823 27.065 162.894 25.9939 164.218 25.9939ZM185.365 42.5546C185.365 36.4594 183.329 33.4101 178.992 33.4101C176.758 33.4101 174.838 34.3376 172.688 36.4526V50.3987C174.66 51.9935 176.703 52.5479 178.541 52.5479C182.329 52.5479 185.365 49.5876 185.365 42.5581V42.5546Z" fill="currentColor"/><path d="M202.035 42.9893C202.035 31.9727 210.526 25.1759 219.335 25.1759C229.783 25.1759 234.958 32.2054 234.958 41.4766C234.958 42.0105 234.937 42.5444 234.903 43.0543C234.79 44.6697 233.449 45.9222 231.83 45.9222H212.565C213.541 50.8504 217.182 53.1092 222.08 53.1092C224.195 53.1092 226.149 52.654 228.137 51.7984C229.239 51.3261 230.523 51.7505 231.132 52.7806L232.353 54.8409C233.062 56.0387 232.614 57.5959 231.361 58.2085C228.01 59.8444 224.116 60.7787 220.591 60.7787C210.136 60.7787 202.038 54.2317 202.038 42.9893H202.035ZM225.673 39.2658C225.673 35.532 223.917 32.842 219.578 32.842C216.145 32.842 213.178 34.9741 212.439 39.2658H225.67H225.673Z" fill="currentColor"/><path d="M242.384 49.403V14.3957C242.384 13.0712 243.455 12 244.78 12H250.854C252.179 12 253.25 13.0712 253.25 14.3957V49.8136C253.25 51.9732 254.328 52.6576 255.214 52.6576H255.42C256.084 52.6576 256.655 53.1368 256.768 53.7904L257.463 57.7741C257.696 59.0985 256.792 60.3477 255.468 60.5564C254.591 60.6933 253.568 60.7755 252.387 60.7755C244.93 60.7755 242.38 56.2716 242.38 49.3995L242.384 49.403Z" fill="currentColor"/><path d="M261.437 42.9893C261.437 31.9727 269.928 25.1759 278.737 25.1759C289.185 25.1759 294.36 32.2054 294.36 41.4766C294.36 42.0105 294.339 42.5444 294.305 43.0543C294.192 44.6697 292.851 45.9222 291.232 45.9222H271.967C272.943 50.8504 276.584 53.1092 281.482 53.1092C283.597 53.1092 285.551 52.654 287.539 51.7984C288.641 51.3261 289.925 51.7505 290.534 52.7806L291.756 54.8409C292.464 56.0387 292.016 57.5959 290.763 58.2085C287.413 59.8444 283.518 60.7787 279.993 60.7787C269.538 60.7787 261.44 54.2317 261.44 42.9893H261.437ZM285.075 39.2658C285.075 35.532 283.319 32.842 278.98 32.842C275.547 32.842 272.58 34.9741 271.841 39.2658H285.072H285.075Z" fill="currentColor"/><path d="M300.243 53.9785L302.18 51.4973C302.919 50.5493 304.25 50.2892 305.281 50.9052C307.943 52.4966 310.469 53.3316 312.991 53.3316C316.225 53.3316 317.625 52.1886 317.625 50.409C317.625 48.1707 313.991 47.1577 310.216 45.7888C305.719 44.1768 300.51 41.415 300.51 35.8023C300.51 29.4812 306.061 25.1725 314.524 25.1725C318.833 25.1725 322.297 26.408 325.086 27.9754C326.373 28.6975 326.694 30.4121 325.767 31.562L323.912 33.8687C323.186 34.7722 321.906 35.0391 320.897 34.4676C318.864 33.3177 316.852 32.6161 314.863 32.6161C312.057 32.6161 310.674 33.6326 310.674 35.3266C310.674 37.493 314.11 38.3212 317.909 39.6011C322.553 41.1925 327.789 43.6122 327.789 49.8203C327.789 56.0285 322.553 60.7719 312.724 60.7719C308.812 60.7719 304.446 59.5022 300.951 57.5309C299.678 56.8122 299.346 55.125 300.246 53.9716L300.243 53.9785Z" fill="currentColor"/><path d="M333.033 53.9785L334.97 51.4973C335.709 50.5493 337.04 50.2892 338.07 50.9052C340.733 52.4966 343.259 53.3316 345.781 53.3316C349.015 53.3316 350.415 52.1886 350.415 50.409C350.415 48.1707 346.78 47.1577 343.005 45.7888C338.508 44.1768 333.3 41.415 333.3 35.8023C333.3 29.4812 338.851 25.1725 347.314 25.1725C351.623 25.1725 355.086 26.408 357.876 27.9754C359.162 28.6975 359.484 30.4121 358.557 31.562L356.702 33.8687C355.976 34.7722 354.696 35.0391 353.687 34.4676C351.654 33.3177 349.641 32.6161 347.653 32.6161C344.847 32.6161 343.464 33.6326 343.464 35.3266C343.464 37.493 346.9 38.3212 350.699 39.6011C355.343 41.1925 360.579 43.6122 360.579 49.8203C360.579 56.0285 355.343 60.7719 345.514 60.7719C341.602 60.7719 337.235 59.5022 333.741 57.5309C332.468 56.8122 332.136 55.125 333.036 53.9716L333.033 53.9785Z" fill="currentColor"/><path d="M15.2678 31.7443C14.9584 29.9937 16.5106 28.4795 18.2473 28.8517C23.2111 29.9238 27.9315 32.3885 31.7883 36.2453C34.8515 39.3085 37.0371 42.9219 38.346 46.7648C39.0282 48.7698 38.5101 50.9839 37.0169 52.4806L36.8635 52.634V52.6369C29.6547 59.8457 20.0648 63.2189 10.6282 62.756C8.62319 62.6586 7.57504 60.3401 8.78639 58.7424C14.7491 50.8721 16.9108 41.0383 15.2678 31.7443ZM22.8596 11.2629C30.709 10.2047 38.9761 12.3703 45.2835 17.2365C46.4844 18.1624 47.6369 19.1965 48.7229 20.3312C55.3156 27.2303 58.2087 37.1052 56.5344 46.4826C56.061 49.135 55.2283 51.7248 54.0657 54.1545C53.4948 55.345 52.5274 57.6807 51.2395 59.0383C50.6478 59.6613 49.9864 60.0754 49.2659 60.0754C48.6394 60.0753 48.0341 59.8039 47.6165 59.341C47.0039 58.6588 47.0768 57.7958 47.1116 56.9465C47.1499 55.9474 47.1457 54.9445 47.0969 53.9455C46.6931 45.4105 43.0524 37.1333 36.9749 31.0627C35.0534 29.1447 32.9161 27.4453 30.6047 26.0217C28.3563 24.6364 25.9476 23.5162 23.4417 22.6808C20.9354 21.8454 18.4182 21.3158 15.8284 21.0617C14.2934 20.912 12.7444 20.8951 11.2024 20.9299C10.5446 20.9473 9.87958 21.0482 9.26002 20.7629C8.74833 20.5262 8.33038 20.0972 8.13893 19.5646C7.94068 19.0182 7.95472 18.395 8.18092 17.8556C8.62305 16.8045 9.82451 16.2446 10.7434 15.6877C11.9233 14.9742 13.11 14.2952 14.3665 13.7209C17.0571 12.4922 19.9288 11.6562 22.8596 11.2629Z" fill="currentColor"/></svg>
